<svg id="Capa_1" data-name="Capa 1" xmlns="http://www.w3.org/2000/svg" width="300" height="85.61" viewBox="0 0 300 85.61"><defs><style>.cls-1,.cls-2{fill:#a4832a;}.cls-1{fill-rule:evenodd;}</style></defs><title>logo-inbios</title><path class="cls-1" d="M220.11,66.36A32.21,32.21,0,0,0,202.85,7.8v5.31A26.91,26.91,0,0,1,217.09,62Z" transform="translate(0 -1.17)"/><path class="cls-1" d="M202.85,65.55a25.58,25.58,0,0,0,0-51.11v5.31a20.28,20.28,0,0,1,0,40.49Z" transform="translate(0 -1.17)"/><path class="cls-1" d="M235.15,39.75A33.52,33.52,0,0,1,232,54.19l4.83,2.18a38.84,38.84,0,0,0-34-55.2V6.48a33.55,33.55,0,0,1,32.3,33.27" transform="translate(0 -1.17)"/><path class="cls-1" d="M184.43,1.17a32.23,32.23,0,0,0,17.26,58.57V54.43A26.91,26.91,0,0,1,187.45,5.54Z" transform="translate(0 -1.17)"/><path class="cls-1" d="M201.69,2a25.59,25.59,0,0,0,0,51.11V47.79a20.28,20.28,0,0,1,0-40.49Z" transform="translate(0 -1.17)"/><path class="cls-1" d="M169.4,27.79a33.24,33.24,0,0,1,3.15-14.44l-4.84-2.17a38.84,38.84,0,0,0,34,55.18v-5.3A33.54,33.54,0,0,1,169.4,27.79" transform="translate(0 -1.17)"/><rect class="cls-2" y="11.03" width="12.2" height="42.41"/><path class="cls-2" d="M77.78,45.4a10.77,10.77,0,0,1-1.14,4.34,11.35,11.35,0,0,1-3.7,4.39A10.75,10.75,0,0,1,66.43,56a12.58,12.58,0,0,1-6-1.11,14.87,14.87,0,0,1-4.18-4.11L35.63,25.91a7.19,7.19,0,0,0-1.56-1.67,2.56,2.56,0,0,0-1.43-.37,2,2,0,0,0-1.16.42,1.43,1.43,0,0,0-.59,1.2V54.61h-12V20.82a7.47,7.47,0,0,1,.57-2.42,11.83,11.83,0,0,1,1.92-3.16,10.9,10.9,0,0,1,3.53-2.79,11.48,11.48,0,0,1,5.32-1.14,12.18,12.18,0,0,1,6.18,1.32A14.73,14.73,0,0,1,40,15.48L60.75,39.92a6.1,6.1,0,0,0,1.66,1.71A3.22,3.22,0,0,0,64,42c.71,0,1.15-.21,1.33-.63a5.32,5.32,0,0,0,.24-1.79V24.51H77.78Z" transform="translate(0 -1.17)"/><path class="cls-2" d="M139.3,47.83a7.82,7.82,0,0,1-.64,2.76,7.07,7.07,0,0,1-2.07,2.81,5.48,5.48,0,0,1-3.66,1.21h-48V28.46h37.17a4.11,4.11,0,0,0,2.1-.84,2.67,2.67,0,0,0,1.27-2.36,3.34,3.34,0,0,0-1-2.21,3.55,3.55,0,0,0-2.79-1.14H65.54V12.14h64a6.58,6.58,0,0,1,3.79,1.25,10.08,10.08,0,0,1,2.91,3.06,6.39,6.39,0,0,1,1.09,3.27v6a6.86,6.86,0,0,1-.44,2.7,5.3,5.3,0,0,1-1.21,1.77c-.52.5-1.37,1.21-2.56,2.14a33.66,33.66,0,0,1,4.48,3.54,4.88,4.88,0,0,1,1.66,3.51Zm-12.68-6.19c0-2-1-2.93-3-2.93H97.09v5.65h27a2.24,2.24,0,0,0,1.81-.8,2.87,2.87,0,0,0,.68-1.92" transform="translate(0 -1.17)"/><rect class="cls-2" x="146.14" y="11.03" width="12.2" height="42.41"/><path class="cls-2" d="M300,48.12a7.15,7.15,0,0,1-1.55,4.61,5.28,5.28,0,0,1-4.38,1.94H244.93V44.25h39.41a4,4,0,0,0,2.18-.76,2.55,2.55,0,0,0,1.16-2.29,2.75,2.75,0,0,0-.49-1.57,3.37,3.37,0,0,0-1.46-1.19,5.25,5.25,0,0,0-2.14-.44h-29.8a6.82,6.82,0,0,1-3.8-1.09,8.16,8.16,0,0,1-2.58-2.51,4.85,4.85,0,0,1-.91-2.35V18.28a6.13,6.13,0,0,1,2-3.93,6.58,6.58,0,0,1,5.09-2.15h44.12V22.27H261.26a2.14,2.14,0,0,0-1.81.95,3.36,3.36,0,0,0-.68,2,3.17,3.17,0,0,0,.93,2,3.34,3.34,0,0,0,2.66,1.06h29.88c2.65,0,4.6.68,5.87,2A7.66,7.66,0,0,1,300,35.68Z" transform="translate(0 -1.17)"/><polygon class="cls-2" points="0 85.33 1.8 75.11 2.77 75.11 0.96 85.33 0 85.33"/><path class="cls-2" d="M6,86.5l1.3-7.37h.83l-.21,1.18a3.64,3.64,0,0,1,1.21-1,3.15,3.15,0,0,1,1.47-.34,2.8,2.8,0,0,1,1.29.27,1.56,1.56,0,0,1,.75.77,1.85,1.85,0,0,1,.12.62,8.93,8.93,0,0,1-.14,1.2l0,.21-.79,4.49h-.88l.8-4.57a2.61,2.61,0,0,0-.09-1.76,1.51,1.51,0,0,0-1.32-.46,2.53,2.53,0,0,0-1.75.65,3,3,0,0,0-.91,1.79L6.83,86.5Z" transform="translate(0 -1.17)"/><path class="cls-2" d="M19.26,77l-.38,2.12h1.37l-.12.69H18.76l-1,5.37a1.11,1.11,0,0,0,0,.63c.06.1.19.15.4.15a1.62,1.62,0,0,0,.3,0l.54-.1-.11.68-.59.12a4.57,4.57,0,0,1-.5,0,.92.92,0,0,1-.84-.33A1.74,1.74,0,0,1,17,85.19l.95-5.37h-1l.13-.69h1L18.4,77Z" transform="translate(0 -1.17)"/><path class="cls-2" d="M24.27,83v0a3,3,0,0,0,.28,2.15,1.74,1.74,0,0,0,1.6.8,2.58,2.58,0,0,0,1.54-.47,2.45,2.45,0,0,0,.93-1.27h.85A3.33,3.33,0,0,1,28.17,86,3.71,3.71,0,0,1,26,86.7a2.43,2.43,0,0,1-2.18-1,3.8,3.8,0,0,1-.35-2.83A5.19,5.19,0,0,1,24.79,80a3.49,3.49,0,0,1,2.57-1,2.36,2.36,0,0,1,2.13,1,3.77,3.77,0,0,1,.35,2.76l-.05.29Zm.14-.69H29a2.67,2.67,0,0,0-.32-1.92,1.68,1.68,0,0,0-1.49-.7,2.54,2.54,0,0,0-1.77.71,3.56,3.56,0,0,0-1,1.9" transform="translate(0 -1.17)"/><path class="cls-2" d="M33.52,86.5l1.3-7.37h.82l-.23,1.29a3.06,3.06,0,0,1,1.09-1.11A2.77,2.77,0,0,1,38,78.94h.1l-.16.89h-.11a2.41,2.41,0,0,0-1.77.66,3.48,3.48,0,0,0-.89,1.94L34.4,86.5Z" transform="translate(0 -1.17)"/><path class="cls-2" d="M40.72,86.5,42,79.13h.83l-.21,1.18a3.64,3.64,0,0,1,1.21-1,3.12,3.12,0,0,1,1.47-.34,2.8,2.8,0,0,1,1.29.27,1.56,1.56,0,0,1,.75.77,1.85,1.85,0,0,1,.12.62,8.93,8.93,0,0,1-.14,1.2l0,.21-.79,4.49h-.89l.81-4.57a2.61,2.61,0,0,0-.09-1.76A1.51,1.51,0,0,0,45,79.71a2.53,2.53,0,0,0-1.75.65,3.12,3.12,0,0,0-.92,1.79l-.76,4.35Z" transform="translate(0 -1.17)"/><path class="cls-2" d="M56.21,85.43a5,5,0,0,1-1.43.94,3.84,3.84,0,0,1-1.52.32,2.28,2.28,0,0,1-1.68-.58,1.72,1.72,0,0,1-.39-1.56,2.47,2.47,0,0,1,.5-1.1,2.76,2.76,0,0,1,1-.75A8.24,8.24,0,0,1,55,82.29l.46,0,.25-.05c.73-.15,1.13-.45,1.21-.91a1.37,1.37,0,0,0-.2-1.23,1.87,1.87,0,0,0-1.34-.37,2.73,2.73,0,0,0-1.6.41A1.9,1.9,0,0,0,53,81.33h-.84a2.74,2.74,0,0,1,1.12-1.74,3.79,3.79,0,0,1,2.23-.64,2.68,2.68,0,0,1,1.91.57,1.75,1.75,0,0,1,.39,1.66l-.71,4c0,.31,0,.5,0,.57s.19.11.39.11h.32l-.12.64-.33,0-.29,0a.92.92,0,0,1-.74-.26.87.87,0,0,1-.13-.76Zm.44-2.8a4.55,4.55,0,0,1-.91.21c-.36,0-.94.09-1.74.14a3.34,3.34,0,0,0-1.34.61,1.53,1.53,0,0,0-.58,1,1,1,0,0,0,.27,1,1.58,1.58,0,0,0,1.15.38,3.24,3.24,0,0,0,2-.61,2.6,2.6,0,0,0,1-1.65Z" transform="translate(0 -1.17)"/><path class="cls-2" d="M64.47,77l-.37,2.12h1.37l-.13.69H64L63,85.19a1,1,0,0,0,0,.63q.09.15.39.15a1.78,1.78,0,0,0,.31,0l.53-.1-.11.68-.59.12a4.6,4.6,0,0,1-.49,0,.93.93,0,0,1-.85-.33,1.82,1.82,0,0,1,0-1.17l.94-5.37h-1l.12-.69h1L63.62,77Z" transform="translate(0 -1.17)"/><path class="cls-2" d="M68.46,86.5l1.3-7.37h.84L69.3,86.5ZM70,77.57l.23-1.29h.84l-.22,1.29Z" transform="translate(0 -1.17)"/><path class="cls-2" d="M74.41,82.82A5.15,5.15,0,0,1,75.8,80a3.75,3.75,0,0,1,2.68-1,2.68,2.68,0,0,1,2.33,1,3.79,3.79,0,0,1,.38,2.87,5,5,0,0,1-1.39,2.86,3.77,3.77,0,0,1-2.69,1,2.63,2.63,0,0,1-2.31-1,3.76,3.76,0,0,1-.39-2.86m.89,0a3.25,3.25,0,0,0,.24,2.31,1.87,1.87,0,0,0,1.7.81,2.65,2.65,0,0,0,2-.81,4.29,4.29,0,0,0,1.06-2.31,3.3,3.3,0,0,0-.25-2.31,1.86,1.86,0,0,0-1.71-.81,2.66,2.66,0,0,0-2,.81,4.22,4.22,0,0,0-1.06,2.31" transform="translate(0 -1.17)"/><path class="cls-2" d="M84.9,86.5l1.3-7.37H87l-.21,1.18a3.64,3.64,0,0,1,1.21-1,3.15,3.15,0,0,1,1.47-.34,2.8,2.8,0,0,1,1.29.27,1.56,1.56,0,0,1,.75.77,1.85,1.85,0,0,1,.12.62,8.93,8.93,0,0,1-.14,1.2l0,.21-.79,4.49h-.88l.8-4.57a2.61,2.61,0,0,0-.09-1.76,1.51,1.51,0,0,0-1.32-.46,2.53,2.53,0,0,0-1.75.65,3,3,0,0,0-.91,1.79l-.77,4.35Z" transform="translate(0 -1.17)"/><path class="cls-2" d="M100.39,85.43a4.9,4.9,0,0,1-1.43.94,3.84,3.84,0,0,1-1.52.32,2.28,2.28,0,0,1-1.68-.58,1.69,1.69,0,0,1-.38-1.56,2.35,2.35,0,0,1,.49-1.1,2.68,2.68,0,0,1,1-.75,8.32,8.32,0,0,1,2.27-.41l.46,0,.25-.05c.73-.15,1.13-.45,1.22-.91a1.37,1.37,0,0,0-.21-1.23,1.85,1.85,0,0,0-1.34-.37,2.72,2.72,0,0,0-1.59.41,1.88,1.88,0,0,0-.79,1.22h-.84a2.74,2.74,0,0,1,1.12-1.74,3.79,3.79,0,0,1,2.23-.64,2.68,2.68,0,0,1,1.91.57,1.75,1.75,0,0,1,.39,1.66l-.71,4c0,.31,0,.5,0,.57s.19.11.39.11H102l-.12.64-.32,0-.3,0a.92.92,0,0,1-.74-.26.87.87,0,0,1-.13-.76Zm.44-2.8a4.55,4.55,0,0,1-.91.21c-.36,0-.94.09-1.73.14a3.32,3.32,0,0,0-1.35.61,1.53,1.53,0,0,0-.58,1,1.08,1.08,0,0,0,.27,1,1.58,1.58,0,0,0,1.15.38,3.24,3.24,0,0,0,2-.61,2.6,2.6,0,0,0,1-1.65Z" transform="translate(0 -1.17)"/><polygon class="cls-2" points="105.95 85.33 107.75 75.11 108.59 75.11 106.79 85.33 105.95 85.33"/><path class="cls-2" d="M118.43,86.5l1.8-10.22h3.38a7.08,7.08,0,0,1,1.38.1,2.2,2.2,0,0,1,.84.32,1.83,1.83,0,0,1,.75.9,2.35,2.35,0,0,1,.09,1.3,2.7,2.7,0,0,1-.63,1.33,3,3,0,0,1-1.27.87,1.93,1.93,0,0,1,1.3.91,2.54,2.54,0,0,1,.22,1.74,3.36,3.36,0,0,1-.7,1.56,3.11,3.11,0,0,1-1.35,1,4.1,4.1,0,0,1-1,.18c-.43,0-1.1,0-2,0Zm1.09-.84h2.75a4.19,4.19,0,0,0,2.2-.44,2.17,2.17,0,0,0,.86-1.52,1.61,1.61,0,0,0-.39-1.56,2.74,2.74,0,0,0-1.88-.53h-2.83Zm3.78-8.54H121l-.65,3.7h2.19a4.58,4.58,0,0,0,2.27-.42A2,2,0,0,0,125.7,79a1.4,1.4,0,0,0-.34-1.42,3.53,3.53,0,0,0-2.06-.42" transform="translate(0 -1.17)"/><path class="cls-2" d="M130.27,86.5l1.3-7.37h.85l-1.3,7.37Zm1.58-8.93.22-1.29h.85l-.23,1.29Z" transform="translate(0 -1.17)"/><path class="cls-2" d="M136.23,82.82A5.09,5.09,0,0,1,137.62,80a3.74,3.74,0,0,1,2.67-1,2.66,2.66,0,0,1,2.33,1,3.79,3.79,0,0,1,.38,2.87,4.93,4.93,0,0,1-1.39,2.86,3.76,3.76,0,0,1-2.69,1,2.63,2.63,0,0,1-2.31-1,3.76,3.76,0,0,1-.38-2.86m.88,0a3.25,3.25,0,0,0,.25,2.31,1.86,1.86,0,0,0,1.7.81,2.63,2.63,0,0,0,2-.81,4.29,4.29,0,0,0,1.06-2.31,3.3,3.3,0,0,0-.24-2.31,1.86,1.86,0,0,0-1.71-.81,2.7,2.7,0,0,0-2,.81,4.29,4.29,0,0,0-1.06,2.31" transform="translate(0 -1.17)"/><path class="cls-2" d="M146.72,86.5l1.3-7.37h.79l-.21,1.22a3.5,3.5,0,0,1,1.16-1,3,3,0,0,1,1.43-.36,2,2,0,0,1,1.3.38,1.45,1.45,0,0,1,.54,1.07,3.59,3.59,0,0,1,1.16-1.08,3,3,0,0,1,1.47-.37,2.08,2.08,0,0,1,1.69.6,2.25,2.25,0,0,1,.27,1.82l-.91,5.14h-.87l.9-5.07a1.74,1.74,0,0,0-.13-1.33,1.28,1.28,0,0,0-1.11-.4,2.51,2.51,0,0,0-1.68.6,2.61,2.61,0,0,0-.86,1.58l-.82,4.62h-.85l.88-5a1.91,1.91,0,0,0-.14-1.36,1.26,1.26,0,0,0-1.1-.44,2.42,2.42,0,0,0-1.67.62,2.72,2.72,0,0,0-.89,1.61l-.8,4.56Z" transform="translate(0 -1.17)"/><path class="cls-2" d="M162.53,83v0a3,3,0,0,0,.27,2.15,1.76,1.76,0,0,0,1.61.8,2.55,2.55,0,0,0,1.53-.47,2.4,2.4,0,0,0,.93-1.27h.86a3.44,3.44,0,0,1-1.29,1.8,3.76,3.76,0,0,1-2.22.67,2.4,2.4,0,0,1-2.17-1,3.85,3.85,0,0,1-.36-2.83A5.2,5.2,0,0,1,163.05,80a3.47,3.47,0,0,1,2.56-1,2.38,2.38,0,0,1,2.14,1,3.72,3.72,0,0,1,.34,2.76L168,83Zm.13-.69h4.62a2.67,2.67,0,0,0-.33-1.92,1.68,1.68,0,0,0-1.49-.7,2.54,2.54,0,0,0-1.77.71,3.62,3.62,0,0,0-1,1.9" transform="translate(0 -1.17)"/><path class="cls-2" d="M179.9,76.28,178.1,86.5h-.86l.22-1.25a3.81,3.81,0,0,1-1.26,1.09,3.54,3.54,0,0,1-1.59.36,2.43,2.43,0,0,1-2.18-1,3.89,3.89,0,0,1-.37-2.84A5.19,5.19,0,0,1,173.45,80a3.57,3.57,0,0,1,2.58-1,2.57,2.57,0,0,1,1.44.37,2.09,2.09,0,0,1,.85,1.09l.72-4.12ZM173,82.82a3.3,3.3,0,0,0,.25,2.31,1.86,1.86,0,0,0,1.69.81,2.65,2.65,0,0,0,2-.8A4.29,4.29,0,0,0,178,82.82a3.25,3.25,0,0,0-.24-2.31A1.86,1.86,0,0,0,176,79.7a2.64,2.64,0,0,0-2,.8A4.33,4.33,0,0,0,173,82.82" transform="translate(0 -1.17)"/><path class="cls-2" d="M183,86.5l1.3-7.37h.84l-1.3,7.37Zm1.57-8.93.23-1.29h.84l-.22,1.29Z" transform="translate(0 -1.17)"/><path class="cls-2" d="M194.15,84H195a3.57,3.57,0,0,1-1.29,2,3.61,3.61,0,0,1-2.25.73,2.43,2.43,0,0,1-2.18-1,3.74,3.74,0,0,1-.37-2.8A5.08,5.08,0,0,1,190.29,80a3.55,3.55,0,0,1,2.59-1,2.53,2.53,0,0,1,1.92.7,2.12,2.12,0,0,1,.54,1.83h-.82a1.6,1.6,0,0,0-.45-1.29,1.78,1.78,0,0,0-1.32-.48,2.51,2.51,0,0,0-1.9.83,4.22,4.22,0,0,0-1,2.26,3.33,3.33,0,0,0,.25,2.31,1.7,1.7,0,0,0,1.6.86,2.39,2.39,0,0,0,1.53-.53,3,3,0,0,0,1-1.48" transform="translate(0 -1.17)"/><path class="cls-2" d="M203.79,85.43a4.9,4.9,0,0,1-1.43.94,3.76,3.76,0,0,1-1.51.32,2.25,2.25,0,0,1-1.68-.58,1.72,1.72,0,0,1-.39-1.56,2.27,2.27,0,0,1,.5-1.1,2.68,2.68,0,0,1,1-.75,8.24,8.24,0,0,1,2.27-.41l.45,0,.26-.05c.73-.15,1.13-.45,1.21-.91a1.37,1.37,0,0,0-.21-1.23,1.85,1.85,0,0,0-1.34-.37,2.72,2.72,0,0,0-1.59.41,1.9,1.9,0,0,0-.78,1.22h-.84a2.74,2.74,0,0,1,1.12-1.74,3.79,3.79,0,0,1,2.23-.64,2.68,2.68,0,0,1,1.91.57,1.75,1.75,0,0,1,.39,1.66l-.71,4c0,.31,0,.5,0,.57s.2.11.4.11h.31l-.11.64-.33,0-.29,0a1,1,0,0,1-.75-.26.91.91,0,0,1-.13-.76Zm.44-2.8a4.28,4.28,0,0,1-.9.21c-.37,0-1,.09-1.74.14a3.27,3.27,0,0,0-1.34.61,1.59,1.59,0,0,0-.59,1,1.05,1.05,0,0,0,.28,1,1.56,1.56,0,0,0,1.15.38,3.19,3.19,0,0,0,2-.61,2.52,2.52,0,0,0,1-1.65Z" transform="translate(0 -1.17)"/><polygon class="cls-2" points="209.35 85.33 211.15 75.11 212 75.11 210.2 85.33 209.35 85.33"/><path class="cls-2" d="M221.9,83.41h.93a2.09,2.09,0,0,0,.44,1.87,2.64,2.64,0,0,0,2,.66,3.39,3.39,0,0,0,2-.53,2.18,2.18,0,0,0,.94-1.48,1.55,1.55,0,0,0-.24-1.34,3.81,3.81,0,0,0-1.76-.82l-.93-.24a3.76,3.76,0,0,1-2-1,2.15,2.15,0,0,1-.29-1.74,3,3,0,0,1,1.26-2,4.26,4.26,0,0,1,2.56-.75,3.08,3.08,0,0,1,2.37.82,2.57,2.57,0,0,1,.52,2.29h-.95a1.91,1.91,0,0,0-.38-1.69,2.31,2.31,0,0,0-1.75-.59,3,3,0,0,0-1.83.51,2.15,2.15,0,0,0-.87,1.43,1.32,1.32,0,0,0,.21,1.1,2.35,2.35,0,0,0,1.22.65l1.14.29A4.57,4.57,0,0,1,228.74,82a2.12,2.12,0,0,1,.39,1.87A3.24,3.24,0,0,1,227.8,86a4.41,4.41,0,0,1-2.7.79,3.57,3.57,0,0,1-2.66-.85,2.64,2.64,0,0,1-.55-2.45Z" transform="translate(0 -1.17)"/><path class="cls-2" d="M233.38,82.82A5.09,5.09,0,0,1,234.77,80a3.74,3.74,0,0,1,2.67-1,2.65,2.65,0,0,1,2.33,1,3.79,3.79,0,0,1,.39,2.87,5.06,5.06,0,0,1-1.39,2.86,3.77,3.77,0,0,1-2.69,1,2.63,2.63,0,0,1-2.32-1,3.76,3.76,0,0,1-.38-2.86m.88,0a3.3,3.3,0,0,0,.25,2.31,1.86,1.86,0,0,0,1.7.81,2.63,2.63,0,0,0,2-.81,4.22,4.22,0,0,0,1.06-2.31,3.25,3.25,0,0,0-.24-2.31,1.86,1.86,0,0,0-1.71-.81,2.7,2.7,0,0,0-2,.81,4.36,4.36,0,0,0-1.06,2.31" transform="translate(0 -1.17)"/><polygon class="cls-2" points="243.96 85.33 245.76 75.11 246.61 75.11 244.81 85.33 243.96 85.33"/><path class="cls-2" d="M256.71,79.13l-1.3,7.37h-.83l.21-1.18a3.66,3.66,0,0,1-1.21,1,3.24,3.24,0,0,1-1.5.34,2.09,2.09,0,0,1-1.76-.66,2.39,2.39,0,0,1-.29-2l.88-5h.85l-.84,4.76a2.12,2.12,0,0,0,.14,1.56,1.54,1.54,0,0,0,1.31.47,2.63,2.63,0,0,0,1.79-.65,3,3,0,0,0,.92-1.78l.77-4.36Z" transform="translate(0 -1.17)"/><path class="cls-2" d="M263,77l-.38,2.12H264l-.12.69h-1.37l-.95,5.37a1.11,1.11,0,0,0,0,.63c.06.1.19.15.4.15a1.62,1.62,0,0,0,.3,0l.54-.1-.11.68-.59.12a4.57,4.57,0,0,1-.5,0,.92.92,0,0,1-.84-.33,1.74,1.74,0,0,1-.06-1.17l.95-5.37h-1l.12-.69h1l.38-2.12Z" transform="translate(0 -1.17)"/><path class="cls-2" d="M266.94,86.5l1.3-7.37h.85l-1.3,7.37Zm1.58-8.93.22-1.29h.85l-.22,1.29Z" transform="translate(0 -1.17)"/><path class="cls-2" d="M272.9,82.82A5.09,5.09,0,0,1,274.29,80a3.74,3.74,0,0,1,2.67-1,2.65,2.65,0,0,1,2.33,1,3.74,3.74,0,0,1,.39,2.87,5.06,5.06,0,0,1-1.39,2.86,3.77,3.77,0,0,1-2.69,1,2.63,2.63,0,0,1-2.32-1,3.76,3.76,0,0,1-.38-2.86m.88,0a3.3,3.3,0,0,0,.25,2.31,1.86,1.86,0,0,0,1.7.81,2.63,2.63,0,0,0,2-.81,4.22,4.22,0,0,0,1.06-2.31,3.25,3.25,0,0,0-.24-2.31,1.86,1.86,0,0,0-1.71-.81,2.7,2.7,0,0,0-2,.81,4.36,4.36,0,0,0-1.06,2.31" transform="translate(0 -1.17)"/><path class="cls-2" d="M283.39,86.5l1.3-7.37h.82l-.2,1.18a3.61,3.61,0,0,1,1.2-1,3.19,3.19,0,0,1,1.48-.34,2.8,2.8,0,0,1,1.29.27A1.56,1.56,0,0,1,290,80a1.64,1.64,0,0,1,.11.62,6.47,6.47,0,0,1-.14,1.2l0,.21-.79,4.49h-.88l.81-4.57a2.61,2.61,0,0,0-.09-1.76c-.21-.31-.65-.46-1.33-.46a2.52,2.52,0,0,0-1.74.65,3.06,3.06,0,0,0-.92,1.79l-.77,4.35Z" transform="translate(0 -1.17)"/><path class="cls-2" d="M294,84.21h.85a1.45,1.45,0,0,0,.36,1.23,1.75,1.75,0,0,0,1.32.48,2.77,2.77,0,0,0,1.51-.37,1.4,1.4,0,0,0,.71-1c.11-.59-.47-1-1.72-1.36h0a4.54,4.54,0,0,1-2-.84,1.36,1.36,0,0,1-.31-1.27,2.37,2.37,0,0,1,1-1.55,3.21,3.21,0,0,1,1.94-.59,2.55,2.55,0,0,1,1.86.62,2,2,0,0,1,.51,1.72h-.87a1.33,1.33,0,0,0-.35-1.16,1.8,1.8,0,0,0-1.3-.42,2.23,2.23,0,0,0-1.27.34,1.34,1.34,0,0,0-.61.92c-.12.66.47,1.14,1.75,1.46l.38.08a3.27,3.27,0,0,1,1.62.78,1.5,1.5,0,0,1,.26,1.3,2.24,2.24,0,0,1-1,1.53,3.77,3.77,0,0,1-2.14.59,2.59,2.59,0,0,1-1.94-.68,2,2,0,0,1-.49-1.81" transform="translate(0 -1.17)"/></svg>